<svg xmlns="http://www.w3.org/2000/svg" viewBox="0 0 32 32" width="32" height="32">
  <defs>
    <!-- Romantic gradient -->
    <linearGradient id="romanticGradient" x1="0%" y1="0%" x2="100%" y2="100%">
      <stop offset="0%" style="stop-color:#F43F5E;stop-opacity:1" />
      <stop offset="50%" style="stop-color:#EC4899;stop-opacity:1" />
      <stop offset="100%" style="stop-color:#8B5CF6;stop-opacity:1" />
    </linearGradient>
    
    <!-- Soft glow -->
    <filter id="glow">
      <feGaussianBlur stdDeviation="1" result="coloredBlur"/>
      <feMerge> 
        <feMergeNode in="coloredBlur"/>
        <feMergeNode in="SourceGraphic"/>
      </feMerge>
    </filter>
  </defs>
  
  <!-- Background circle with romantic gradient -->
  <circle cx="16" cy="16" r="15" fill="url(#romanticGradient)" stroke="#fff" stroke-width="0.5"/>
  
  <!-- Decorative background elements -->
  <circle cx="8" cy="8" r="1" fill="#fff" opacity="0.3"/>
  <circle cx="24" cy="8" r="1" fill="#fff" opacity="0.3"/>
  <circle cx="8" cy="24" r="1" fill="#fff" opacity="0.3"/>
  <circle cx="24" cy="24" r="1" fill="#fff" opacity="0.3"/>
  
  <!-- Main heart symbol -->
  <path d="M16 8 C16 8, 12 12, 12 16 C12 20, 16 24, 16 24 C16 24, 20 20, 20 16 C20 12, 16 8, 16 8 Z" 
        fill="#fff" opacity="0.9" filter="url(#glow)"/>
  
  <!-- Poetry lines -->
  <line x1="10" y1="12" x2="22" y2="12" stroke="#fff" stroke-width="1.5" stroke-linecap="round" opacity="0.8"/>
  <line x1="10" y1="15" x2="20" y2="15" stroke="#fff" stroke-width="1.5" stroke-linecap="round" opacity="0.8"/>
  <line x1="10" y1="18" x2="18" y2="18" stroke="#fff" stroke-width="1.5" stroke-linecap="round" opacity="0.8"/>
  
  <!-- Small decorative hearts -->
  <path d="M6 6 L6.5 6.5 L7 6 L6.5 5.5 Z" fill="#fff" opacity="0.6"/>
  <path d="M26 6 L26.5 6.5 L27 6 L26.5 5.5 Z" fill="#fff" opacity="0.6"/>
  
  <!-- Sparkle elements -->
  <circle cx="28" cy="4" r="0.5" fill="#fff" opacity="0.7"/>
  <circle cx="4" cy="28" r="0.5" fill="#fff" opacity="0.7"/>
</svg> 